<svg xmlns="http://www.w3.org/2000/svg" xmlns:xlink="http://www.w3.org/1999/xlink" fill="none" version="1.1" width="16" height="16" viewBox="0 0 16 16"><defs><clipPath id="master_svg0_45_8"><rect x="0" y="0" width="16" height="16" rx="0"/></clipPath></defs><g clip-path="url(#master_svg0_45_8)"><g><path d="M12.7468375,11.148426396484375L11.4812375,11.148426396484375C11.2265375,11.148426396484375,11.0218375,10.942176396484374,11.0218375,10.689056396484375L11.0218375,9.106246396484375C11.0218375,8.851556396484375,11.2281375,8.646866396484375,11.4812375,8.646866396484375C11.7343375,8.646866396484375,11.9406375,8.853116396484374,11.9406375,9.106246396484375L11.9406375,10.228116396484374L12.7468375,10.228116396484374C13.0015375,10.228116396484374,13.2062375,10.434366396484375,13.2062375,10.687496396484375C13.2062375,10.940616396484375,13.0000375,11.148426396484375,12.7468375,11.148426396484375ZM11.4765375,13.996856396484375C9.4781275,13.996856396484375,7.8515575,12.370256396484375,7.8515575,10.371866396484375C7.8515575,8.373426396484376,9.4781275,6.748426396484375,11.4765375,6.748426396484375C13.4750375,6.748426396484375,15.1000375,8.373426396484376,15.1000375,10.371866396484375C15.1000375,12.370256396484375,13.4765375,13.996856396484375,11.4765375,13.996856396484375ZM11.4765375,7.668746396484375C9.9859375,7.668746396484375,8.7718775,8.881246396484375,8.7718775,10.373426396484374C8.7718775,11.864056396484376,9.9843775,13.078156396484374,11.4765375,13.078156396484374C12.9672375,13.078156396484374,14.1812375,11.865616396484375,14.1812375,10.373426396484374C14.1812375,8.882806396484375,12.9687375,7.668746396484375,11.4765375,7.668746396484375ZM6.7578175,13.046856396484374L3.2531275,13.046856396484374C2.6499975,13.046856396484374,2.1609375,12.556256396484375,2.1609375,11.954676396484375L2.1609375,4.992176396484375C2.1609375,4.737496396484374,2.3671875,4.532806396484375,2.6203075,4.532806396484375L11.4796375,4.532806396484375C11.7343375,4.532806396484375,11.9390375,4.739056396484375,11.9390375,4.992176396484375C11.9390375,5.246866396484375,11.7328375,5.451556396484375,11.4796375,5.451556396484375L3.0812475,5.451556396484375L3.0812475,11.953116396484376C3.0812475,12.048456396484376,3.1593775,12.126556396484375,3.2546875,12.126556396484375L6.7578175,12.126556396484375C7.0124975,12.126556396484375,7.2171875,12.332756396484376,7.2171875,12.585956396484375C7.2171875,12.840656396484375,7.0109375,13.046856396484374,6.7578175,13.046856396484374ZM12.1328375,5.451556396484375L1.9718775,5.451556396484375C1.3796875,5.451556396484375,0.8984375,4.970306396484375,0.8984375,4.378116396484375L0.8984375,3.0749963964843747C0.8984375,2.482806396484375,1.3796875,2.001556396484375,1.9718775,2.001556396484375L12.1328375,2.001556396484375C12.7250375,2.001556396484375,13.2062375,2.482806396484375,13.2062375,3.0749963964843747L13.2062375,4.378116396484375C13.2062375,4.970306396484375,12.7250375,5.451556396484375,12.1328375,5.451556396484375ZM1.9718775,2.921868396484375C1.8874995,2.921868396484375,1.8187495,2.990618396484375,1.8187495,3.0749963964843747L1.8187495,4.378116396484375C1.8187495,4.462496396484375,1.8874995,4.531246396484375,1.9718775,4.531246396484375L12.1328375,4.531246396484375C12.2172375,4.531246396484375,12.2859375,4.462496396484375,12.2859375,4.378116396484375L12.2859375,3.0749963964843747C12.2859375,2.990619396484375,12.2171375,2.921868396484375,12.1328375,2.921868396484375L1.9718775,2.921868396484375Z" fill="#1989FA" fill-opacity="1"/></g></g></svg>