<svg xmlns="http://www.w3.org/2000/svg" xmlns:xlink="http://www.w3.org/1999/xlink" fill="none" version="1.1" width="16" height="16" viewBox="0 0 16 16"><defs><clipPath id="master_svg0_45_02"><rect x="0" y="0" width="16" height="16" rx="0"/></clipPath></defs><g clip-path="url(#master_svg0_45_02)"><g><path d="M8.328783359374999,11.693446533203126L7.477073359375,11.663246533203125L7.463103359375,11.661646533203125C6.512563359375,11.554346533203125,5.615053359375,11.219646533203125,4.867633359375,10.693776533203126C4.057823359375,10.123966533203125,3.469933359375,9.354806533203124,3.167503359375,8.469446533203126C2.793803359375,7.375876533203125,2.839963359375,6.158066533203125,2.884593359375,4.980366533203124C2.898543359375,4.612136533203126,2.911723359375,4.264346533203125,2.911723359375,3.927086533203125C2.911723359375,3.495136533203125,3.277763359375,3.131506533203125,3.705763359375,3.1426365332031247C4.377623359375,3.1599365332031253,4.909953359375,3.317066533203125,5.477473359375,3.573086533203125C5.638373359375,3.157176533203125,5.865093359375,2.782686533203125,6.154383359375,2.455776533203125C6.826743359375,1.695859533203125,7.412993359375,1.326446533203125,7.946583359375,1.326446533203125C8.291113359375,1.326446533203125,8.667083359374999,1.478935533203125,9.064003359375,1.779643533203125C9.338753359375,1.9877905332031252,9.620133359375,2.267392533203125,9.836033359375,2.546756533203125C10.097043359375,2.884736533203125,10.290963359375,3.238736533203125,10.423063359375,3.619976533203125C11.036893359375,3.360796533203125,11.636293359375,3.163796533203125,12.349193359375,3.142686533203125C12.356393359375,3.142466533203125,12.363893359375,3.142346533203125,12.371393359375,3.142346533203125C12.572993359375,3.142346533203125,12.764793359375,3.2234465332031252,12.911693359375,3.370706533203125C13.060193359375,3.519626533203125,13.144993359375,3.722826533203125,13.144393359375,3.928166533203125C13.142793359375,4.556816533203126,13.131093359375,5.194916533203125,13.119793359375,5.811986533203125C13.117193359375,5.952226533203125,13.114593359375,6.092446533203125,13.112193359375,6.232676533203125C13.110393359375,6.332176533203125,13.109793359375,6.435426533203125,13.109093359375,6.535316533203125C13.105193359375,7.123136533203125,13.101093359375,7.730986533203125,12.900693359375,8.318696533203125C12.245593359375,10.243026533203125,10.414203359375,11.599046533203126,8.343513359374999,11.692846533203126L8.328783359374999,11.693446533203126ZM7.531293359375,10.934376533203125L8.324903359375,10.962526533203125C10.091993359375,10.876676533203126,11.651793359375,9.721076533203124,12.209393359375,8.083146533203125C12.371593359375,7.607516533203125,12.375193359375,7.059966533203125,12.378793359375,6.530436533203125C12.379393359375,6.428636533203125,12.380093359375,6.323376533203125,12.381893359375,6.219896533203125C12.384393359375,6.079416533203125,12.386993359375,5.938986533203125,12.389493359375,5.798566533203125C12.400793359375,5.184326533203125,12.412493359375,4.549186533203125,12.413993359375,3.926186533203125C12.414093359375,3.916066533203125,12.407993359375,3.899966533203125,12.394493359375,3.886396533203125C12.384493359375,3.876346533203125,12.375193359375,3.872706533203125,12.371393359375,3.872706533203125C11.641993359375,3.894306533203125,11.042593359375,4.1385565332031256,10.334853359375,4.4556365332031245L9.924933359375,4.639276533203125L9.828813359375,4.200516533203125C9.732473359375,3.760716533203125,9.545783359375,3.365816533203125,9.258073359375,2.993266533203125C8.907273359375,2.539356533203125,8.328353359375,2.0568165332031247,7.946593359375,2.0568165332031247C7.773303359375,2.0568165332031247,7.381113359375,2.171522533203125,6.701373359375,2.939766533203125C6.394533359375,3.286506533203125,6.174743359375,3.702656533203125,6.048113359375,4.176676533203125L5.932223359375,4.610416533203125L5.531163359375,4.408626533203125C4.883233359375,4.0826265332031255,4.373723359375,3.890436533203125,3.686753359375,3.872756533203125C3.670743359375,3.872756533203125,3.642103359375,3.900686533203125,3.642103359375,3.927086533203125C3.642103359375,4.2781765332031245,3.628673359375,4.632706533203125,3.614443359375,5.008026533203125C3.572343359375,6.119116533203125,3.528813359375,7.268036533203125,3.858653359375,8.233316533203125C4.350823359375,9.674196533203125,5.791513359375,10.733216533203125,7.531293359375,10.934376533203125ZM6.323923359375,14.060546533203125C6.197093359375,14.060546533203125,6.073863359375,13.994446533203124,6.006473359375,13.876446533203126C5.541863359375,13.062846533203125,4.786543359375,12.014946533203124,3.826763359375,11.642746533203125C3.436693359375,11.491746533203125,2.911143359375,11.467846533203126,2.455373359375,11.580546533203124C2.173213359375,11.650346533203125,1.670676359375,11.837046533203125,1.4752243593749998,12.302946533203125C1.397213359375,12.488946533203125,1.183182359375,12.576446533203125,0.997212359375,12.498446533203126C0.811226859375,12.420446533203124,0.723702259375,12.206446533203126,0.801713359375,12.020446533203126C1.038113359375,11.456946533203125,1.563117359375,11.048896533203125,2.280023359375,10.871576533203125C2.882973359375,10.722426533203125,3.559843359375,10.756186533203126,4.090683359374999,10.961806533203125C4.611893359374999,11.163886533203126,5.118583359375,11.530746533203125,5.596713359375,12.052146533203125C5.964403359375,12.453146533203125,6.315643359375,12.945046533203126,6.640683359375,13.514246533203124C6.740693359375,13.689346533203125,6.679803359375,13.912446533203125,6.504663359375,14.012446533203125C6.447563359375,14.045046533203125,6.385323359375,14.060546533203125,6.323923359375,14.060546533203125ZM9.676093359375,14.060546533203125C9.614693359375,14.060546533203125,9.552483359375,14.045046533203125,9.495343359375,14.012446533203125C9.320213359375,13.912446533203125,9.259303359375,13.689346533203125,9.359323359375,13.514246533203124C9.684363359375,12.945046533203126,10.035613359375,12.453146533203125,10.403303359375,12.052146533203125C10.881393359375,11.530746533203125,11.388093359375,11.163876533203124,11.909193359375,10.961836533203124C12.440193359375,10.756196533203125,13.117093359375,10.722456533203125,13.719993359375,10.871576533203125C14.436893359375,11.048896533203125,14.961893359375,11.456846533203125,15.198293359375,12.020446533203126C15.276293359375,12.206446533203126,15.188793359375,12.420446533203124,15.002793359375,12.498446533203126C14.816793359375,12.576446533203125,14.602793359375,12.488946533203125,14.524793359375,12.302946533203125C14.329293359375,11.837046533203125,13.826793359375,11.650346533203125,13.544593359375,11.580546533203124C13.088793359375,11.467846533203126,12.563293359375,11.491746533203125,12.173093359375,11.642846533203125C11.213493359375,12.014946533203124,10.458163359375,13.062846533203125,9.993543359375,13.876446533203126C9.926163359375,13.994446533203124,9.802923359375,14.060546533203125,9.676093359375,14.060546533203125ZM8.000033359375,14.673546533203124C7.798363359375,14.673546533203124,7.634853359375,14.510046533203125,7.634853359375,14.308446533203124L7.634853359375,11.327946533203125C7.634853359375,11.126316533203125,7.798363359375,10.962826533203126,8.000033359375,10.962826533203126C8.201703359375,10.962826533203126,8.365213359375,11.126316533203125,8.365213359375,11.327946533203125L8.365213359375,14.308446533203124C8.365213359375,14.510046533203125,8.201703359375,14.673546533203124,8.000033359375,14.673546533203124Z" fill="#1989FA" fill-opacity="1"/></g></g></svg>