<svg xmlns="http://www.w3.org/2000/svg" xmlns:xlink="http://www.w3.org/1999/xlink" fill="none" version="1.1" width="32" height="32" viewBox="0 0 32 32"><defs><clipPath id="master_svg0_39_27"><rect x="0" y="0" width="32" height="32" rx="0"/></clipPath></defs><g clip-path="url(#master_svg0_39_27)"><g><path d="M15.9999259765625,29.333371752929686C8.6666259765625,29.333371752929686,2.6666259765625,23.333371752929686,2.6666259765625,15.999971752929687C2.6666259765625,8.666671752929688,8.6666259765625,2.6666717529296875,15.9999259765625,2.6666717529296875C23.3333259765625,2.6666717529296875,29.3333259765625,8.666671752929688,29.3333259765625,15.999971752929687C29.3333259765625,23.333371752929686,23.3333259765625,29.333371752929686,15.9999259765625,29.333371752929686ZM15.9999259765625,4.6666717529296875C9.7332959765625,4.6666717529296875,4.6666259765625,9.733341752929688,4.6666259765625,15.999971752929687C4.6666259765625,22.26667175292969,9.7332959765625,27.333371752929686,15.9999259765625,27.333371752929686C22.2666259765625,27.333371752929686,27.3333259765625,22.26667175292969,27.3333259765625,15.999971752929687C27.3333259765625,9.733331752929686,22.2666259765625,4.6666717529296875,15.9999259765625,4.6666717529296875Z" fill="#FF6200" fill-opacity="1"/></g><g><path d="M13.4666551953125,20.13333740234375L9.3333251953125,16.00000740234375C8.9333257953125,15.60000740234375,8.9333257953125,14.93333740234375,9.3333251953125,14.53333640234375C9.7333251953125,14.13333740234375,10.3999951953125,14.13333740234375,10.7999951953125,14.53333640234375L14.9333251953125,18.666667402343748C15.3333251953125,19.06666740234375,15.3333251953125,19.73333740234375,14.9333251953125,20.13333740234375C14.5333251953125,20.53333740234375,13.8666551953125,20.53333740234375,13.4666551953125,20.13333740234375Z" fill="#FF6200" fill-opacity="1"/></g><g><path d="M22.666650390625,13.066673051757812L15.333320390625,20.400003051757814C14.933320390625,20.800003051757812,14.399983390625,20.800003051757812,13.999983390625,20.400003051757814L13.866650390625,20.266673051757813C13.466650990625,19.866673051757815,13.466650990625,19.333333051757812,13.866650390625,18.933333051757813L21.199980390625,11.600002051757812C21.599980390625,11.200003051757813,22.133320390625002,11.200003051757813,22.533320390625,11.600002051757812L22.666650390625,11.733335051757813C22.933320390625,12.000002051757813,22.933320390625,12.666673051757812,22.666650390625,13.066673051757812Z" fill="#FF6200" fill-opacity="1"/></g></g></svg>