<svg xmlns="http://www.w3.org/2000/svg" xmlns:xlink="http://www.w3.org/1999/xlink" fill="none" version="1.1" width="32" height="32" viewBox="0 0 32 32"><defs><clipPath id="master_svg0_42_0"><rect x="0" y="0" width="32" height="32" rx="0"/></clipPath></defs><g clip-path="url(#master_svg0_42_0)"><g><path d="M25.6766259765625,19.806656494140626L18.0166259765625,28.666656494140625C16.953725976562502,29.896356494140626,15.0474259765625,29.897356494140624,13.9833059765625,28.668656494140624L6.2073059765625,19.685956494140626C6.1713059765625005,19.644656494140627,6.1406359765625,19.599356494140626,6.1173059765625,19.552656494140624C5.1632849765625,17.857756494140624,4.6635675465625,15.944956494140625,4.6666398048625,13.999956494140624C4.6666398048625,7.740656494140625,9.740635976562501,2.666656494140625,15.9999259765625,2.666656494140625C22.2593259765625,2.666656494140625,27.3333259765625,7.740656494140625,27.3333259765625,13.999956494140624C27.3333259765625,15.991956494140625,26.8179259765625,17.911356494140627,25.8526259765625,19.605356494140626C25.8081259765625,19.683456494140625,25.7482259765625,19.751656494140626,25.6766259765625,19.805956494140624L25.6766259765625,19.806656494140626ZM24.7599259765625,18.826656494140625C25.5760259765625,17.348956494140623,26.0027259765625,15.688056494140625,25.9999259765625,13.999956494140624C25.9999259765625,8.477326494140625,21.5226259765625,3.999986494140625,15.9999259765625,3.999986494140625C10.4773059765625,3.999986494140625,5.9999759765625,8.477326494140625,5.9999759765625,13.999956494140624C5.9999759765625,15.728656494140624,6.4386359765625,17.391356494140624,7.2619759765625,18.866656494140624L14.9906259765625,27.795956494140626C15.5226259765625,28.410956494140624,16.4764259765625,28.410656494140625,17.0079259765625,27.795356494140623L24.7599259765625,18.826656494140625ZM15.9999259765625,18.666656494140625C13.4226459765625,18.666656494140625,11.3333059765625,16.577356494140624,11.3333059765625,13.999956494140624C11.3333059765625,11.422656494140625,13.4226459765625,9.333326494140625,15.9999259765625,9.333326494140625C18.5773259765625,9.333326494140625,20.6666259765625,11.422656494140625,20.6666259765625,13.999956494140624C20.6666259765625,16.577356494140624,18.5773259765625,18.666656494140625,15.9999259765625,18.666656494140625ZM15.9999259765625,17.333356494140624C17.8415259765625,17.334256494140625,19.334925976562502,15.841556494140624,19.334925976562502,13.999956494140624C19.334925976562502,12.158406494140625,17.8415259765625,10.665756494140625,15.9999259765625,10.666656494140625C14.1596559765625,10.667556494140625,12.6682659765625,12.159676494140625,12.6682659765625,13.999956494140624C12.6682659765625,15.840256494140625,14.1596559765625,17.332456494140626,15.9999259765625,17.333356494140624Z" fill="#FF6200" fill-opacity="1"/></g></g></svg>