<svg xmlns="http://www.w3.org/2000/svg" xmlns:xlink="http://www.w3.org/1999/xlink" fill="none" version="1.1" width="16" height="14.773670196533203" viewBox="0 0 16 14.773670196533203"><defs><clipPath id="master_svg0_45_4"><rect x="0" y="0" width="16" height="14.773670196533203" rx="0"/></clipPath></defs><g clip-path="url(#master_svg0_45_4)"><g><path d="M4.92456,3.69342L4.92456,3.07785L3.69342,3.07785L3.69342,1.84671L3.07785,1.84671L3.07785,3.69342L3.69342,3.69342L4.92456,3.69342ZM13.3579,4.30899L10.7725,4.30899L10.7725,4.0012C10.7725,3.1394,10.0953,2.46228,9.23354,2.46228L6.64815,2.46228C6.24803,1.04647,4.92456,0,3.38563,0C1.50815,0,0,1.50815,0,3.38563C0,4.58599,0.61557,5.60168,1.53892,6.21725L1.53892,11.0803C1.53892,11.942,2.21605,12.6192,3.07785,12.6192L3.38563,12.6192C3.38563,13.8195,4.33977,14.7737,5.54013,14.7737C6.74049,14.7737,7.69462,13.8195,7.69462,12.6192L10.7725,12.6192C10.7725,13.8195,11.7266,14.7737,12.927,14.7737C14.1273,14.7737,15.0815,13.8195,15.0815,12.6192L16.0048,12.6192L16.0048,7.26372L13.3579,4.30899ZM15.3892,8.31019L12.6192,8.31019C12.0959,8.31019,11.6958,7.91007,11.6958,7.38684C11.6958,6.8636,12.0959,6.46348,12.6192,6.46348L14.4659,6.46348L15.3892,7.50995L15.3892,8.31019ZM0.61557,3.38563C0.61557,1.84671,1.84671,0.61557,3.38563,0.61557C4.92456,0.61557,6.1557,1.84671,6.1557,3.38563C6.1557,4.92456,4.92456,6.1557,3.38563,6.1557C1.84671,6.1557,0.61557,4.92456,0.61557,3.38563ZM5.54013,14.1581C4.67833,14.1581,4.0012,13.481,4.0012,12.6192C4.0012,11.7574,4.67833,11.0803,5.54013,11.0803C6.40192,11.0803,7.07905,11.7574,7.07905,12.6192C7.07905,13.481,6.40192,14.1581,5.54013,14.1581ZM7.60228,12.0036C7.32528,11.111,6.52504,10.4647,5.54013,10.4647C4.55521,10.4647,3.75497,11.111,3.47797,12.0036L3.07785,12.0036C2.55461,12.0036,2.15449,11.6035,2.15449,11.0803L2.15449,6.52504C2.52384,6.67893,2.95473,6.77127,3.38563,6.77127C5.26312,6.77127,6.77127,5.26312,6.77127,3.38563C6.77127,3.2933,6.77127,3.17018,6.74049,3.07785L9.23354,3.07785C9.75678,3.07785,10.1569,3.47797,10.1569,4.0012L10.1569,12.0036L7.60228,12.0036ZM12.927,14.1581C12.0652,14.1581,11.388,13.481,11.388,12.6192C11.388,11.7574,12.0652,11.0803,12.927,11.0803C13.7888,11.0803,14.4659,11.7574,14.4659,12.6192C14.4659,13.481,13.7888,14.1581,12.927,14.1581ZM14.9891,12.0036C14.7121,11.111,13.9119,10.4647,12.927,10.4647C11.942,10.4647,11.1418,11.111,10.8648,12.0036L10.7725,12.0036L10.7725,4.92456L13.1116,4.92456L13.9427,5.84791L12.6192,5.84791C11.7574,5.84791,11.0803,6.52504,11.0803,7.38684C11.0803,8.24863,11.7574,8.92576,12.6192,8.92576L15.3892,8.92576L15.3892,12.0036L14.9891,12.0036Z" fill="#1989FA" fill-opacity="1"/></g></g></svg>