<svg xmlns="http://www.w3.org/2000/svg" xmlns:xlink="http://www.w3.org/1999/xlink" fill="none" version="1.1" width="16" height="16" viewBox="0 0 16 16"><defs><clipPath id="master_svg0_45_0"><rect x="0" y="0" width="16" height="16" rx="0"/></clipPath></defs><g clip-path="url(#master_svg0_45_0)"><g><path d="M7.27534,7.333343505859375L5.747,5.550013505859375C5.61874,5.411173505859375,5.63145,5.193583505859375,5.77502,5.070633505859375C5.91858,4.947683505859375,6.13555,4.968583505859375,6.253,5.116673505859374L8,7.154013505859375L9.74667,5.1160135058593745C9.86645,4.975863505859375,10.07722,4.959463505859375,10.21724,5.079403505859375C10.35726,5.199333505859375,10.37343,5.410123505859375,10.25334,5.550013505859375L8.72434,7.333343505859375L9.99767,7.333343505859375C10.18267,7.333343505859375,10.333,7.481343505859375,10.333,7.666673505859375C10.333,7.850673505859375,10.183,8.000013505859375,9.997340000000001,8.000013505859375L8.33334,8.000013505859375L8.33334,9.333343505859375L9.99767,9.333343505859375C10.183,9.333343505859375,10.33334,9.481343505859375,10.33334,9.666673505859375C10.33334,9.850673505859374,10.18334,10.000013505859375,9.99767,10.000013505859375L8.33334,10.000013505859375L8.33334,11.997643505859376C8.33334,12.183043505859375,8.18534,12.333343505859375,8,12.333343505859375C7.816,12.333343505859375,7.66667,12.183643505859376,7.66667,11.997643505859376L7.66667,10.000013505859375L6.00234,10.000013505859375C5.817410000000001,10.001123505859375,5.66685,9.851613505859374,5.66667,9.666673505859375C5.66667,9.482673505859376,5.81667,9.333343505859375,6.00234,9.333343505859375L7.66667,9.333343505859375L7.66667,8.000013505859375L6.00234,8.000013505859375C5.817410000000001,8.001123505859375,5.66685,7.851613505859375,5.66667,7.666673505859375C5.66667,7.482673505859375,5.81667,7.333343505859375,6.00234,7.333343505859375L7.27534,7.333343505859375ZM4.66667,1.999343505859375C4.66667,1.631343505859375,4.966,1.333343505859375,5.33,1.333343505859375L10.67,1.333343505859375C11.036,1.333343505859375,11.33334,1.632676505859375,11.33334,1.999343505859375L11.33334,2.667343505859375C11.33315,3.034053505859375,11.03671,3.3316935058593753,10.67,3.333343505859375L5.33,3.333343505859375C4.964,3.333343505859375,4.66667,3.0340135058593747,4.66667,2.667343505859375L4.66667,1.999343505859375ZM5.33334,2.666673505859375L10.66667,2.666673505859375L10.66667,2.000010505859375L5.33334,2.000010505859375L5.33334,2.666673505859375ZM3.69,2.000010505859375L3.69,2.666673505859375L2.668002,2.666673505859375L2.6666689999999997,13.998343505859374L13.3333,14.000043505859376L13.3333,2.668343505859375L12.3423,2.666673505859375L12.3423,2.000010505859375L13.3313,2.000010505859375C13.7007,2.000010505859375,14,2.298010505859375,14,2.668343505859375L14,13.998343505859374C14,14.367343505859376,13.7033,14.666643505859374,13.3333,14.666643505859374L2.6666689999999997,14.666643505859374C2.297828,14.666643505859374,1.999080777,14.367143505859374,2.00000238419,13.998343505859374L2.00000238419,2.668343505859375C2.00000238419,2.299343505859375,2.298669,2.000010505859375,2.668002,2.000010505859375L3.69,2.000010505859375Z" fill="#1989FA" fill-opacity="1"/></g></g></svg>