<svg xmlns="http://www.w3.org/2000/svg" xmlns:xlink="http://www.w3.org/1999/xlink" fill="none" version="1.1" width="16" height="16" viewBox="0 0 16 16"><defs><clipPath id="master_svg0_49_8"><rect x="0" y="0" width="16" height="16" rx="0"/></clipPath></defs><g clip-path="url(#master_svg0_49_8)"><g><path d="M14.834459619140626,6.799502159729004L13.619959619140625,5.743752159729004L13.619959619140625,4.377322159729004C13.619959619140625,4.107722159729004,13.401859619140625,3.889302159729004,13.132359619140624,3.889302159729004C12.862859619140625,3.889302159729004,12.644659619140626,4.107742159729003,12.644659619140626,4.377322159729004L12.644659619140626,4.895912159729004L8.327619619140625,1.143176159729004C8.327379619140626,1.142968159729004,8.327129619140624,1.142777159729004,8.326869619140625,1.142569159729004C8.295549619140626,1.115355359729004,8.261459619140625,1.092714759729004,8.225499619140624,1.0747588597290039C8.225469619140625,1.074742959729004,8.225419619140624,1.0747109597290039,8.225389619140625,1.0746949597290039C8.218799619140626,1.071401259729004,8.212129619140626,1.068299259729004,8.205419619140624,1.065325359729004C8.204699619140625,1.0650055597290038,8.203979619140625,1.0646538597290038,8.203239619140625,1.0643340597290039C8.197279619140625,1.061727759729004,8.191249619140624,1.059297459729004,8.185209619140625,1.0569310597290038C8.183739619140624,1.0563553597290039,8.182279619140626,1.0557157597290039,8.180799619140625,1.0551562597290038C8.175459619140625,1.053125659729004,8.170069619140625,1.051286859729004,8.164659619140625,1.049448159729004C8.162469619140625,1.048696659729004,8.160309619140625,1.047897259729004,8.158119619140624,1.047177659729004C8.153289619140626,1.0456107597290039,8.148419619140626,1.0442196597290039,8.143539619140626,1.0428125597290039C8.140789619140625,1.0420131597290039,8.138039619140624,1.041133759729004,8.135279619140626,1.040382259729004C8.130609619140625,1.039119159729004,8.125909619140625,1.038031859729004,8.121199619140626,1.0368965597290039C8.118259619140625,1.0361930597290039,8.115339619140624,1.0354095597290038,8.112389619140625,1.034770059729004C8.107469619140625,1.0336826597290039,8.102499619140625,1.0327873197290038,8.097539619140626,1.031859989729004C8.094819619140626,1.031348349729004,8.092119619140625,1.0307567097290038,8.089419619140624,1.030293109729004C8.083729619140625,1.0293337097290038,8.078019619140626,1.0285502697290039,8.072309619140626,1.0277827997290039C8.070339619140626,1.027526969729004,8.068389619140625,1.027175189729004,8.066409619140625,1.026935339729004C8.059339619140625,1.0260719097290039,8.052239619140625,1.025400399729004,8.045139619140624,1.024856689729004C8.044569619140624,1.0248087597290039,8.043979619140625,1.024728779729004,8.043399619140626,1.024696829729004C7.966699619140625,1.019020679729004,7.888719619140625,1.031428219729004,7.816279619140625,1.0623192597290039C7.815459619140625,1.0626550597290039,7.814649619140625,1.0629748597290039,7.813849619140625,1.0633265597290038C7.808679619140625,1.0655650597290038,7.803579619140625,1.067963459729004,7.798479619140625,1.0703937597290039C7.796139619140625,1.0714970597290039,7.793799619140625,1.0725363597290039,7.791479619140625,1.0736875597290039C7.787769619140625,1.075526359729004,7.784119619140625,1.077492959729004,7.780439619140625,1.0794277597290038C7.776779619140625,1.0813463597290038,7.773119619140625,1.083233159729004,7.769509619140625,1.085247759729004C7.767039619140625,1.086622859729004,7.764609619140625,1.088109859729004,7.762179619140625,1.089532859729004C7.757439619140625,1.0922989597290038,7.752689619140625,1.095081059729004,7.748019619140625,1.098007059729004C7.746509619140625,1.0989503597290038,7.745059619140625,1.099957659729004,7.743569619140625,1.1009170597290039C7.738069619140625,1.1044506597290038,7.732599619140625,1.1080802597290038,7.727229619140625,1.111853759729004C7.726289619140625,1.1125252597290038,7.725359619140625,1.1132287597290038,7.724419619140625,1.113900259729004C7.718629619140625,1.1180255597290039,7.712889619140625,1.122278559729004,7.707259619140625,1.126691159729004C7.706399619140625,1.127363159729004,7.705569619140625,1.1280661597290038,7.704719619140625,1.1287381597290038C7.699149619140625,1.1331511597290038,7.693649619140625,1.137660159729004,7.688249619140625,1.142345159729004C7.687909619140625,1.1426331597290038,7.687579619140625,1.142888159729004,7.687239619140625,1.143176159729004L3.211059619140625,5.034172159729004L3.211059619140625,4.539992159729004C3.211059619140625,4.270402159729004,2.992899619140625,4.051972159729004,2.723389619140625,4.051972159729004C2.4538796191406247,4.051972159729004,2.235719619140625,4.270412159729004,2.235719619140625,4.539992159729004L2.235719619140625,5.841402159729004C2.235719619140625,5.854592159729004,2.236389619140625,5.867602159729004,2.237419619140625,5.880522159729004L1.180212619140625,6.799502159729004C0.976783019140625,6.976312159729004,0.955261619140625,7.284512159729004,1.132085619140625,7.4878521597290035C1.228596619140625,7.598892159729004,1.364184619140625,7.655772159729004,1.500651619140625,7.655772159729004C1.614158619140625,7.655772159729004,1.7282256191406251,7.6163721597290035,1.820594619140625,7.535982159729004L8.007439619140625,2.157992159729004L14.194259619140626,7.535982159729004C14.286559619140625,7.616352159729004,14.400659619140624,7.655772159729004,14.514259619140624,7.655772159729004C14.650559619140624,7.655772159729004,14.786159619140625,7.598892159729004,14.882659619140625,7.4878521597290035C15.059659619140625,7.284502159729004,15.037959619140626,6.976312159729004,14.834459619140626,6.799502159729004Z" fill="#FFFFFF" fill-opacity="1"/></g><g><path d="M13.213051220703125,7.572993278503418C12.943551220703124,7.572993278503418,12.724951220703124,7.791437278503418,12.724951220703124,8.061014278503418L12.724951220703124,12.909373278503418C12.724951220703124,13.520833278503417,12.304241220703124,14.037463278503418,11.806131220703126,14.037463278503418L4.208661220703125,14.037463278503418C3.710551220703125,14.037463278503418,3.289793220703125,13.520833278503417,3.289793220703125,12.909373278503418L3.289793220703125,8.061030278503418C3.289793220703125,7.791437278503418,3.0712702207031253,7.573009491003418,2.801772220703125,7.573009491003418C2.532259220703125,7.573009491003418,2.313751220703125,7.791453278503418,2.313751220703125,8.061030278503418L2.313751220703125,12.909373278503418C2.313751220703125,14.069553278503417,3.163831220703125,15.013513278503417,4.208671220703125,15.013513278503417L11.806131220703126,15.013513278503417C12.850951220703125,15.013513278503417,13.701051220703125,14.069553278503417,13.701051220703125,12.909373278503418L13.701051220703125,8.061030278503418C13.701051220703125,7.791437278503418,13.482551220703124,7.572993278503418,13.213051220703125,7.572993278503418Z" fill="#FFFFFF" fill-opacity="1"/></g><g><path d="M6.102919681640625,6.3403730392456055C5.833406681640625,6.3403730392456055,5.614898681640625,6.558817039245605,5.614898681640625,6.828394039245605L5.614898681640625,7.304503039245605C5.614898681640625,7.574093039245605,5.833422681640625,7.792523039245605,6.102919681640625,7.792523039245605C6.372432681640625,7.792523039245605,6.590940681640625,7.574083039245606,6.590940681640625,7.304503039245605L6.590940681640625,6.828394039245605C6.590941681640625,6.558817039245605,6.372433681640625,6.3403730392456055,6.102919681640625,6.3403730392456055Z" fill="#FFFFFF" fill-opacity="1"/></g><g><path d="M9.911879642578125,6.3403730392456055C9.642366642578125,6.3403730392456055,9.423858642578125,6.558817039245605,9.423858642578125,6.828394039245605L9.423858642578125,7.304503039245605C9.423858642578125,7.574093039245605,9.642382642578125,7.792523039245605,9.911879642578125,7.792523039245605C10.181392642578125,7.792523039245605,10.399900642578125,7.574083039245606,10.399900642578125,7.304503039245605L10.399900642578125,6.828394039245605C10.399916642578125,6.558817039245605,10.181392642578125,6.3403730392456055,9.911879642578125,6.3403730392456055Z" fill="#FFFFFF" fill-opacity="1"/></g><g><path d="M9.2073516015625,8.54444690480957C8.9801716015625,8.39892960480957,8.6785716015625,8.465492244809571,8.5331316015625,8.69218680480957C8.5312316015625,8.695208804809571,8.3240716015625,8.99609180480957,8.0023716015625,8.99609180480957C7.6897416015625,8.99609180480957,7.4952776015625,8.71268380480957,7.4824226015625,8.69330480480957C7.3390476015625,8.46803379080957,7.0407066015625,8.39940830480957,6.8131326015625,8.54096030480957C6.5842161215625,8.68313580480957,6.5139914015625,8.98403580480957,6.6561832015625,9.21295280480957C6.8314086015625,9.49494180480957,7.3121226015625,9.97216180480957,8.0023916015625,9.97216180480957C8.6892416015625,9.97216180480957,9.1758316015625,9.49860180480957,9.3551016015625,9.21867680480957C9.5004516015625,8.99164780480957,9.4342816015625,8.68980380480957,9.2073516015625,8.54444690480957Z" fill="#FFFFFF" fill-opacity="1"/></g></g></svg>