<svg xmlns="http://www.w3.org/2000/svg" xmlns:xlink="http://www.w3.org/1999/xlink" fill="none" version="1.1" width="16" height="16" viewBox="0 0 16 16"><defs><clipPath id="master_svg0_49_06"><rect x="0" y="0" width="16" height="16" rx="0"/></clipPath></defs><g clip-path="url(#master_svg0_49_06)"><g><path d="M13.79374970703125,14.117149237060547C13.77184970703125,11.620349237060546,12.18754970703125,9.515629237060548,9.97813970703125,8.681249237060547C11.25938970703125,7.998439237060547,12.13594970703125,6.657809237060547,12.13594970703125,5.101559237060547C12.13594970703125,2.848439237060547,10.30938970703125,1.021874307060547,8.05625970703125,1.020311717060547L8.05625970703125,1.0187492370605469C8.02969970703125,1.0187492370605469,8.00469970703125,1.0218741870605468,7.97969970703125,1.0218741870605468C7.95313970703125,1.0218741870605468,7.92813970703125,1.0187492370605469,7.90313970703125,1.0187492370605469L7.90156970703125,1.020311717060547C5.64844970703125,1.0218741870605468,3.82188970703125,2.848439237060547,3.82188970703125,5.101559237060547C3.82188970703125,6.657809237060547,4.69688970703125,7.998439237060547,5.97969970703125,8.681249237060547C3.76719970703125,9.515629237060548,2.18438720703125,11.620349237060546,2.16094970703125,14.117149237060547L2.16094970703125,14.198449237060547C2.16407465703125,14.343749237060546,2.19376230703125,14.481249237060547,2.20469970703125,14.626549237060546L2.21407480703125,14.626549237060546C2.23751230703125,14.851549237060548,2.42813770703125,15.023449237060547,2.65469970703125,15.023449237060547C2.88126270703125,15.023449237060547,3.07188770703125,14.851549237060548,3.09532470703125,14.626549237060546L3.10938670703125,14.626549237060546C3.09688670703125,14.473449237060548,3.06407470703125,14.326549237060547,3.06407470703125,14.171849237060547C3.06407470703125,12.848449237060548,3.58907970703125,11.579649237060547,4.52500970703125,10.643749237060547C5.44219970703125,9.726559237060547,6.68125970703125,9.206249237060547,7.97657970703125,9.185939237060547C9.27188970703125,9.206249237060547,10.51094970703125,9.724999237060548,11.42813970703125,10.643749237060547C12.36564970703125,11.579649237060547,12.89064970703125,12.848449237060548,12.89064970703125,14.171849237060547C12.89064970703125,14.326549237060547,12.85934970703125,14.473449237060548,12.84534970703125,14.626549237060546L12.85934970703125,14.626549237060546C12.88284970703125,14.851549237060548,13.07344970703125,15.023449237060547,13.30004970703125,15.023449237060547C13.52654970703125,15.023449237060547,13.71724970703125,14.851549237060548,13.74064970703125,14.626549237060546L13.75004970703125,14.626549237060546C13.76094970703125,14.481249237060547,13.79064970703125,14.343749237060546,13.79374970703125,14.198449237060547L13.79374970703125,14.117149237060547ZM4.87969970703125,5.101559237060547C4.87969970703125,3.373439237060547,6.26094970703125,1.970312237060547,7.97813970703125,1.929687237060547C9.695329707031249,1.971875237060547,11.07656970703125,3.373439237060547,11.07656970703125,5.101559237060547C11.07656970703125,6.829689237060547,9.69531970703125,8.232809237060547,7.97813970703125,8.273439237060547C6.25938970703125,8.231249237060547,4.87969970703125,6.829689237060547,4.87969970703125,5.101559237060547Z" fill="#FFFFFF" fill-opacity="1"/></g></g></svg>