<svg xmlns="http://www.w3.org/2000/svg" xmlns:xlink="http://www.w3.org/1999/xlink" fill="none" version="1.1" width="32" height="32" viewBox="0 0 32 32"><defs><clipPath id="master_svg0_23_4"><rect x="0" y="0" width="32" height="32" rx="0"/></clipPath></defs><g clip-path="url(#master_svg0_23_4)"><g><path d="M25.001067578125,29.0004828125L6.998767578124999,29.0004828125C5.343127578125,29.0004828125,3.999267578125,27.6566828125,3.999267578125,26.0009828125L3.999267578125,6.004382812499999C3.999267578125,4.3487428125,5.343127578125,3.0048828125,6.998767578124999,3.0048828125L24.995767578125,3.0048828125C26.651367578125,3.0048828125,27.995267578125,4.3487428125,27.995267578125,6.004382812499999L27.995267578125,26.0009828125C28.000567578125,27.6512828125,26.651367578125,29.0004828125,25.001067578125,29.0004828125ZM6.998767578124999,4.9991728124999995C6.450467578125,4.9991728124999995,5.998927578125,5.4507128125,5.998927578125,5.999002812500001L5.998927578125,25.9956828125C5.998927578125,26.5492828125,6.450467578125,26.9954828125,6.998767578124999,26.9954828125L24.995767578125,26.9954828125C25.549367578125,26.9954828125,25.995567578125,26.5492828125,25.995567578125,25.9956828125L25.995567578125,5.999002812500001C25.995567578125,5.4507128125,25.549367578125,4.9991728124999995,24.995767578125,4.9991728124999995L6.998767578124999,4.9991728124999995Z" fill="#ffffff" fill-opacity="1"/></g><g><path d="M20.028886132812502,17.02401302734375L8.9931181328125,17.02401302734375C8.4394471328125,17.02401302734375,7.9932861328125,16.57785302734375,7.9932861328125,16.02418502734375C7.9932861328125,15.47051402734375,8.4394471328125,15.02435302734375,8.9931181328125,15.02435302734375L20.028886132812502,15.02435302734375C20.5825861328125,15.02435302734375,21.0286861328125,15.47051402734375,21.0286861328125,16.02418502734375C21.0286861328125,16.57785302734375,20.5825861328125,17.02401302734375,20.028886132812502,17.02401302734375Z" fill="#ffffff" fill-opacity="1"/></g><g><path d="M22.9639150390625,22.9853777734375L8.9877470390625,22.9853777734375C8.4340760390625,22.9853777734375,7.9879150390625,22.5392177734375,7.9879150390625,21.9855497734375C7.9879150390625,21.4318787734375,8.4340760390625,20.9857177734375,8.9877470390625,20.9857177734375L22.9639150390625,20.9857177734375C23.517515039062502,20.9857177734375,23.9637150390625,21.4318787734375,23.9637150390625,21.9855497734375C23.9637150390625,22.5392177734375,23.517515039062502,22.9853777734375,22.9639150390625,22.9853777734375Z" fill="#ffffff" fill-opacity="1"/></g><g><path d="M10.9927861328125,9.541406494140626Q10.9927861328125,9.615086494140625,10.9855561328125,9.688406494140626Q10.978336132812501,9.761726494140625,10.9639661328125,9.833986494140625Q10.9495861328125,9.906256494140624,10.9282061328125,9.976756494140625Q10.9068161328125,10.047266494140626,10.8786161328125,10.115336494140625Q10.8504261328125,10.183406494140625,10.8156961328125,10.248376494140626Q10.7809661328125,10.313356494140624,10.740026132812499,10.374616494140625Q10.6990961328125,10.435876494140626,10.6523561328125,10.492836494140626Q10.6056161328125,10.549786494140625,10.5535161328125,10.601886494140626Q10.5014161328125,10.653986494140625,10.4444661328125,10.700726494140625Q10.3875061328125,10.747466494140625,10.3262461328125,10.788396494140624Q10.2649861328125,10.829336494140625,10.2000061328125,10.864066494140625Q10.1350361328125,10.898796494140624,10.0669661328125,10.926986494140625Q9.9988961328125,10.955186494140625,9.9283861328125,10.976576494140625Q9.8578861328125,10.997966494140625,9.7856161328125,11.012336494140625Q9.7133561328125,11.026706494140626,9.6400361328125,11.033926494140625Q9.5667161328125,11.041156494140624,9.4930361328125,11.041156494140624Q9.4193561328125,11.041156494140624,9.3460361328125,11.033926494140625Q9.2727061328125,11.026706494140626,9.2004461328125,11.012336494140625Q9.1281861328125,10.997966494140625,9.0576761328125,10.976576494140625Q8.9871751328125,10.955186494140625,8.9191051328125,10.926986494140625Q8.8510361328125,10.898796494140624,8.7860581328125,10.864066494140625Q8.7210801328125,10.829336494140625,8.6598191328125,10.788396494140624Q8.5985581328125,10.747466494140625,8.5416041328125,10.700726494140625Q8.4846501328125,10.653986494140625,8.4325521328125,10.601886494140626Q8.3804541328125,10.549786494140625,8.3337131328125,10.492836494140626Q8.2869721328125,10.435876494140626,8.2460391328125,10.374616494140625Q8.2051061328125,10.313356494140624,8.1703741328125,10.248376494140626Q8.1356431328125,10.183406494140625,8.1074481328125,10.115336494140625Q8.0792523328125,10.047266494140626,8.0578647328125,9.976756494140625Q8.0364772328125,9.906256494140624,8.0221033328125,9.833986494140625Q8.0077295328125,9.761726494140625,8.0005078328125,9.688406494140626Q7.9932861328125,9.615086494140625,7.9932861328125,9.541406494140626Q7.9932861328125,9.467726494140624,8.0005078328125,9.394406494140625Q8.0077295328125,9.321076494140625,8.0221033328125,9.248816494140625Q8.0364772328125,9.176556494140625,8.0578647328125,9.106046494140625Q8.0792523328125,9.035545494140624,8.1074481328125,8.967475494140626Q8.1356431328125,8.899406494140624,8.1703741328125,8.834428494140624Q8.2051061328125,8.769450494140624,8.2460391328125,8.708189494140624Q8.2869721328125,8.646928494140624,8.3337131328125,8.589974494140625Q8.3804541328125,8.533020494140626,8.4325521328125,8.480922494140625Q8.4846501328125,8.428824494140626,8.5416041328125,8.382083494140625Q8.5985581328125,8.335342494140624,8.6598191328125,8.294409494140625Q8.7210801328125,8.253476494140624,8.7860581328125,8.218744494140624Q8.8510361328125,8.184013494140626,8.9191051328125,8.155818494140625Q8.9871751328125,8.127622694140625,9.0576761328125,8.106235094140626Q9.1281861328125,8.084847594140625,9.2004461328125,8.070473694140626Q9.2727061328125,8.056099894140624,9.3460361328125,8.048878194140626Q9.4193561328125,8.041656494140625,9.4930361328125,8.041656494140625Q9.5667161328125,8.041656494140625,9.6400361328125,8.048878194140626Q9.7133561328125,8.056099894140624,9.7856161328125,8.070473694140626Q9.8578861328125,8.084847594140625,9.9283861328125,8.106235094140626Q9.9988961328125,8.127622694140625,10.0669661328125,8.155818494140625Q10.1350361328125,8.184013494140626,10.2000061328125,8.218744494140624Q10.2649861328125,8.253476494140624,10.3262461328125,8.294409494140625Q10.3875061328125,8.335342494140624,10.4444661328125,8.382083494140625Q10.5014161328125,8.428824494140626,10.5535161328125,8.480922494140625Q10.6056161328125,8.533020494140626,10.6523561328125,8.589974494140625Q10.6990961328125,8.646928494140624,10.740026132812499,8.708189494140624Q10.7809661328125,8.769450494140624,10.8156961328125,8.834428494140624Q10.8504261328125,8.899406494140624,10.8786161328125,8.967475494140626Q10.9068161328125,9.035545494140624,10.9282061328125,9.106046494140625Q10.9495861328125,9.176556494140625,10.9639661328125,9.248816494140625Q10.978336132812501,9.321076494140625,10.9855561328125,9.394406494140625Q10.9927861328125,9.467726494140624,10.9927861328125,9.541406494140626Z" fill="#ffffff" fill-opacity="1"/></g><g><path d="M17.470203125,9.541406494140626Q17.470203125,9.615086494140625,17.462973125,9.688406494140626Q17.455753125,9.761726494140625,17.441383125,9.833986494140625Q17.427003125,9.906256494140624,17.405623124999998,9.976756494140625Q17.384233125,10.047266494140626,17.356033125,10.115336494140625Q17.327843125,10.183406494140625,17.293113125,10.248376494140626Q17.258383125,10.313356494140624,17.217443125,10.374616494140625Q17.176513125,10.435876494140626,17.129773125,10.492836494140626Q17.083033125,10.549786494140625,17.030933125,10.601886494140626Q16.978833125,10.653986494140625,16.921883125,10.700726494140625Q16.864923125,10.747466494140625,16.803663125,10.788396494140624Q16.742403125,10.829336494140625,16.677423125,10.864066494140625Q16.612453125000002,10.898796494140624,16.544383125,10.926986494140625Q16.476313125,10.955186494140625,16.405803125,10.976576494140625Q16.335303125,10.997966494140625,16.263033125,11.012336494140625Q16.190773125,11.026706494140626,16.117453125,11.033926494140625Q16.044133125000002,11.041156494140624,15.970453125,11.041156494140624Q15.896773125,11.041156494140624,15.823453125,11.033926494140625Q15.750123125,11.026706494140626,15.677863125,11.012336494140625Q15.605603125,10.997966494140625,15.535093125,10.976576494140625Q15.464592125,10.955186494140625,15.396522125,10.926986494140625Q15.328453125,10.898796494140624,15.263475125,10.864066494140625Q15.198497125,10.829336494140625,15.137236125,10.788396494140624Q15.075975125,10.747466494140625,15.019021125,10.700726494140625Q14.962067125,10.653986494140625,14.909969125,10.601886494140626Q14.857871125,10.549786494140625,14.811130125,10.492836494140626Q14.764389125,10.435876494140626,14.723456125,10.374616494140625Q14.682523125,10.313356494140624,14.647791125,10.248376494140626Q14.613060125,10.183406494140625,14.584865125,10.115336494140625Q14.556669325,10.047266494140626,14.535281725,9.976756494140625Q14.513894225,9.906256494140624,14.499520325,9.833986494140625Q14.485146525,9.761726494140625,14.477924825,9.688406494140626Q14.470703125,9.615086494140625,14.470703125,9.541406494140626Q14.470703125,9.467726494140624,14.477924825,9.394406494140625Q14.485146525,9.321076494140625,14.499520325,9.248816494140625Q14.513894225,9.176556494140625,14.535281725,9.106046494140625Q14.556669325,9.035545494140624,14.584865125,8.967475494140626Q14.613060125,8.899406494140624,14.647791125,8.834428494140624Q14.682523125,8.769450494140624,14.723456125,8.708189494140624Q14.764389125,8.646928494140624,14.811130125,8.589974494140625Q14.857871125,8.533020494140626,14.909969125,8.480922494140625Q14.962067125,8.428824494140626,15.019021125,8.382083494140625Q15.075975125,8.335342494140624,15.137236125,8.294409494140625Q15.198497125,8.253476494140624,15.263475125,8.218744494140624Q15.328453125,8.184013494140626,15.396522125,8.155818494140625Q15.464592125,8.127622694140625,15.535093125,8.106235094140626Q15.605603125,8.084847594140625,15.677863125,8.070473694140626Q15.750123125,8.056099894140624,15.823453125,8.048878194140626Q15.896773125,8.041656494140625,15.970453125,8.041656494140625Q16.044133125000002,8.041656494140625,16.117453125,8.048878194140626Q16.190773125,8.056099894140624,16.263033125,8.070473694140626Q16.335303125,8.084847594140625,16.405803125,8.106235094140626Q16.476313125,8.127622694140625,16.544383125,8.155818494140625Q16.612453125000002,8.184013494140626,16.677423125,8.218744494140624Q16.742403125,8.253476494140624,16.803663125,8.294409494140625Q16.864923125,8.335342494140624,16.921883125,8.382083494140625Q16.978833125,8.428824494140626,17.030933125,8.480922494140625Q17.083033125,8.533020494140626,17.129773125,8.589974494140625Q17.176513125,8.646928494140624,17.217443125,8.708189494140624Q17.258383125,8.769450494140624,17.293113125,8.834428494140624Q17.327843125,8.899406494140624,17.356033125,8.967475494140626Q17.384233125,9.035545494140624,17.405623124999998,9.106046494140625Q17.427003125,9.176556494140625,17.441383125,9.248816494140625Q17.455753125,9.321076494140625,17.462973125,9.394406494140625Q17.470203125,9.467726494140624,17.470203125,9.541406494140626Z" fill="#ffffff" fill-opacity="1"/></g><g><path d="M23.9744755859375,9.541406494140626Q23.9744755859375,9.615086494140625,23.9672455859375,9.688406494140626Q23.9600255859375,9.761726494140625,23.9456555859375,9.833986494140625Q23.9312755859375,9.906256494140624,23.909895585937498,9.976756494140625Q23.8885055859375,10.047266494140626,23.8603055859375,10.115336494140625Q23.8321155859375,10.183406494140625,23.7973855859375,10.248376494140626Q23.7626555859375,10.313356494140624,23.7217155859375,10.374616494140625Q23.6807855859375,10.435876494140626,23.6340455859375,10.492836494140626Q23.5873055859375,10.549786494140625,23.5352055859375,10.601886494140626Q23.4831055859375,10.653986494140625,23.4261555859375,10.700726494140625Q23.3691955859375,10.747466494140625,23.3079355859375,10.788396494140624Q23.2466755859375,10.829336494140625,23.1816955859375,10.864066494140625Q23.116725585937502,10.898796494140624,23.0486555859375,10.926986494140625Q22.9805855859375,10.955186494140625,22.9100755859375,10.976576494140625Q22.8395755859375,10.997966494140625,22.7673055859375,11.012336494140625Q22.6950455859375,11.026706494140626,22.6217255859375,11.033926494140625Q22.548405585937502,11.041156494140624,22.4747255859375,11.041156494140624Q22.4010455859375,11.041156494140624,22.3277255859375,11.033926494140625Q22.254395585937502,11.026706494140626,22.182135585937502,11.012336494140625Q22.109875585937502,10.997966494140625,22.0393655859375,10.976576494140625Q21.9688645859375,10.955186494140625,21.9007945859375,10.926986494140625Q21.8327255859375,10.898796494140624,21.7677475859375,10.864066494140625Q21.7027695859375,10.829336494140625,21.6415085859375,10.788396494140624Q21.5802475859375,10.747466494140625,21.5232935859375,10.700726494140625Q21.4663395859375,10.653986494140625,21.4142415859375,10.601886494140626Q21.3621435859375,10.549786494140625,21.3154025859375,10.492836494140626Q21.2686615859375,10.435876494140626,21.2277285859375,10.374616494140625Q21.1867955859375,10.313356494140624,21.1520635859375,10.248376494140626Q21.1173325859375,10.183406494140625,21.0891375859375,10.115336494140625Q21.0609417859375,10.047266494140626,21.0395541859375,9.976756494140625Q21.0181666859375,9.906256494140624,21.0037927859375,9.833986494140625Q20.9894189859375,9.761726494140625,20.9821972859375,9.688406494140626Q20.9749755859375,9.615086494140625,20.9749755859375,9.541406494140626Q20.9749755859375,9.467726494140624,20.9821972859375,9.394406494140625Q20.9894189859375,9.321076494140625,21.0037927859375,9.248816494140625Q21.0181666859375,9.176556494140625,21.0395541859375,9.106046494140625Q21.0609417859375,9.035545494140624,21.0891375859375,8.967475494140626Q21.1173325859375,8.899406494140624,21.1520635859375,8.834428494140624Q21.1867955859375,8.769450494140624,21.2277285859375,8.708189494140624Q21.2686615859375,8.646928494140624,21.3154025859375,8.589974494140625Q21.3621435859375,8.533020494140626,21.4142415859375,8.480922494140625Q21.4663395859375,8.428824494140626,21.5232935859375,8.382083494140625Q21.5802475859375,8.335342494140624,21.6415085859375,8.294409494140625Q21.7027695859375,8.253476494140624,21.7677475859375,8.218744494140624Q21.8327255859375,8.184013494140626,21.9007945859375,8.155818494140625Q21.9688645859375,8.127622694140625,22.0393655859375,8.106235094140626Q22.109875585937502,8.084847594140625,22.182135585937502,8.070473694140626Q22.254395585937502,8.056099894140624,22.3277255859375,8.048878194140626Q22.4010455859375,8.041656494140625,22.4747255859375,8.041656494140625Q22.548405585937502,8.041656494140625,22.6217255859375,8.048878194140626Q22.6950455859375,8.056099894140624,22.7673055859375,8.070473694140626Q22.8395755859375,8.084847594140625,22.9100755859375,8.106235094140626Q22.9805855859375,8.127622694140625,23.0486555859375,8.155818494140625Q23.116725585937502,8.184013494140626,23.1816955859375,8.218744494140624Q23.2466755859375,8.253476494140624,23.3079355859375,8.294409494140625Q23.3691955859375,8.335342494140624,23.4261555859375,8.382083494140625Q23.4831055859375,8.428824494140626,23.5352055859375,8.480922494140625Q23.5873055859375,8.533020494140626,23.6340455859375,8.589974494140625Q23.6807855859375,8.646928494140624,23.7217155859375,8.708189494140624Q23.7626555859375,8.769450494140624,23.7973855859375,8.834428494140624Q23.8321155859375,8.899406494140624,23.8603055859375,8.967475494140626Q23.8885055859375,9.035545494140624,23.909895585937498,9.106046494140625Q23.9312755859375,9.176556494140625,23.9456555859375,9.248816494140625Q23.9600255859375,9.321076494140625,23.9672455859375,9.394406494140625Q23.9744755859375,9.467726494140624,23.9744755859375,9.541406494140626Z" fill="#ffffff" fill-opacity="1"/></g></g></svg>