<svg xmlns="http://www.w3.org/2000/svg" xmlns:xlink="http://www.w3.org/1999/xlink" fill="none" version="1.1" width="32" height="32" viewBox="0 0 32 32"><defs><clipPath id="master_svg0_23_0"><rect x="0" y="0" width="32" height="32" rx="0"/></clipPath></defs><g clip-path="url(#master_svg0_23_0)"><g><path d="M25.9658123046875,8.390460458984375L23.2848123046875,8.390460458984375C22.1275123046875,4.826260458984375,19.3500123046875,2.619720458984375,15.9995123046875,2.619720458984375C12.6490423046875,2.619720458984375,9.872492304687501,4.826260458984375,8.714242304687499,8.390460458984375L6.0342323046874995,8.390460458984375C4.5278323046875,8.390460458984375,3.3026123046875,9.640080458984375,3.3026123046875,11.178040458984375L3.3026123046875,26.595120458984375C3.3026123046875,28.131120458984373,4.5278023046875,29.380220458984375,6.0342323046874995,29.380220458984375L25.9658123046875,29.380220458984375C27.4119123046875,29.380220458984375,28.5855123046875,28.226820458984374,28.6792123046875,26.776820458984375C28.6830123046875,26.744320458984376,28.6973123046875,26.717520458984374,28.6973123046875,26.685020458984376L28.6973123046875,26.595120458984375L28.6973123046875,25.856720458984373L28.6973123046875,11.178040458984375C28.6973123046875,9.640050458984376,27.4721123046875,8.390460458984375,25.9658123046875,8.390460458984375ZM15.9995123046875,4.635410458984375C18.3657123046875,4.635410458984375,20.2739123046875,5.998840458984375,21.2791123046875,8.390430458984376L10.7208823046875,8.390430458984376C11.7260823046875,5.998840458984375,13.6333123046875,4.635410458984375,15.9995123046875,4.635410458984375ZM25.8347123046875,27.561120458984377L6.1652823046875,27.561120458984377C5.5732323046875,27.561120458984377,5.0931123046875,27.067520458984376,5.0931123046875,26.461220458984375L5.0931123046875,11.310980458984375C5.0931123046875,10.704570458984374,5.5732323046875,10.212010458984375,6.1652823046875,10.212010458984375L8.2905223046875,10.212010458984375C8.1939223046875,10.835110458984374,8.1460823046875,11.456830458984374,8.1460823046875,12.067040458984374C8.1460823046875,12.547200458984374,8.177642304687499,13.034920458984375,8.2407723046875,13.551920458984375C7.7386123046875,13.880020458984376,7.4325523046875,14.439020458984375,7.4325523046875,15.049320458984376C7.4325523046875,16.033520458984377,8.2187623046875,16.834920458984374,9.1857223046875,16.834920458984374C10.150802304687499,16.834920458984374,10.9379423046875,16.033520458984377,10.9379423046875,15.049320458984376C10.9379423046875,14.443420458984376,10.6309223046875,13.880920458984376,10.1288023046875,13.551920458984375C10.0494323046875,13.027820458984374,10.0111523046875,12.540960458984374,10.0111523046875,12.067040458984374C10.0111523046875,11.446310458984374,10.0685523046875,10.823180458984375,10.1814023046875,10.212010458984375L21.8176123046875,10.212010458984375C21.9304123046875,10.820300458984375,21.9878123046875,11.443430458984375,21.9878123046875,12.067040458984374C21.9878123046875,12.548160458984375,21.9486123046875,13.040720458984374,21.8692123046875,13.569620458984375C21.3824123046875,13.899620458984375,21.0859123046875,14.456720458984375,21.0859123046875,15.049320458984376C21.0859123046875,16.033520458984377,21.8712123046875,16.834920458984374,22.8372123046875,16.834920458984374C23.8042123046875,16.834920458984374,24.5903123046875,16.033520458984377,24.5903123046875,15.049320458984376C24.5903123046875,14.427620458984375,24.2766123046875,13.862320458984374,23.7611123046875,13.537120458984376C23.8223123046875,13.032120458984375,23.8519123046875,12.549120458984374,23.8519123046875,12.067040458984374C23.8519123046875,11.453950458984375,23.8042123046875,10.832260458984376,23.7094123046875,10.212010458984375L25.8347123046875,10.212010458984375C26.4248123046875,10.212010458984375,26.9049123046875,10.704570458984374,26.9049123046875,11.310980458984375L26.9049123046875,26.465020458984377C26.9030123046875,27.069520458984375,26.4239123046875,27.561120458984377,25.8347123046875,27.561120458984377Z" fill="#ffffff" fill-opacity="1"/></g></g></svg>