<svg xmlns="http://www.w3.org/2000/svg" xmlns:xlink="http://www.w3.org/1999/xlink" fill="none" version="1.1" width="16" height="16" viewBox="0 0 16 16"><defs><clipPath id="master_svg0_49_33"><rect x="0" y="0" width="16" height="16" rx="0"/></clipPath></defs><g clip-path="url(#master_svg0_49_33)"><g><path d="M12.9703869140625,4.823435565185546L12.9703869140625,1.343749565185547C12.9703869140625,1.2671875651855469,12.9374869140625,1.2015622651855469,12.8718869140625,1.157812265185547C12.8171869140625,1.1140621851855468,12.7296869140625,1.1140621851855468,12.6640869140625,1.1468747651855469L6.7468969140625,4.106245565185547C6.7312769140625,4.103125565185547,6.7140869140625,4.099995565185547,6.6968969140625,4.099995565185547L3.2109569140625,4.099995565185547C2.5000269140625,4.099995565185547,1.9218999140625002,4.679685565185547,1.9218999140625002,5.389065565185547L1.9218999140625002,5.603125565185547L1.4843999140625,5.592185565185547C1.2093999140625,5.592185565185547,1.0015869140625,5.873435565185547,1.0015869140625,6.178125565185547L1.0015869140625,7.9656255651855465C1.0015869140625,8.259375565185547,1.2234619140625,8.507815565185547,1.5078369140625,8.507815565185547L1.9203369140625,8.507815565185547L1.9203369140625,8.657815565185548C1.9203369140625,9.368745565185547,2.5000269140625,9.946875565185547,3.2093969140625,9.946875565185547L3.2562769140625,9.946875565185547L4.5922069140624995,14.634385565185546C4.6172069140625,14.732785565185546,4.7203369140625,14.798485565185548,4.8359569140625,14.798485565185548L6.2062769140625,14.798485565185548C6.3468969140625,14.798485565185548,6.4625269140625,14.699985565185546,6.4875269140625,14.579685565185548L6.4875269140625,9.948435565185546L6.5890869140625,9.948435565185546C6.6015869140625,9.956245565185547,6.6140869140625,9.962505565185547,6.6297169140625,9.968745565185547L12.6640869140625,12.874985565185547C12.6968869140625,12.885985565185546,12.7296869140625,12.896885565185547,12.7624869140625,12.896885565185547C12.8062869140625,12.896885565185547,12.8499869140625,12.885985565185546,12.8718869140625,12.864085565185547C12.9265869140625,12.820285565185547,12.9703869140625,12.754685565185547,12.9703869140625,12.678085565185548L12.9703869140625,9.153125565185547C14.1640869140625,9.099995565185548,15.0031869140625,8.117185565185547,15.0031869140625,7.010935565185547C15.0031869140625,5.915625565185547,14.1577869140625,4.896875565185547,12.9703869140625,4.823435565185546ZM1.9203359140625,8.010935565185548L1.5484619140625,8.010935565185548C1.5047119140625,8.010935565185548,1.4609619140625,7.978125565185547,1.4609619140625,7.923435565185547L1.4609619140625,6.196875565185547C1.4609619140625,6.1531255651855465,1.4937749140625,6.109375565185547,1.5484619140625,6.109375565185547L1.9203369140625,6.109375565185547L1.9203359140625,8.010935565185548ZM5.9203369140625,14.292185565185546L5.1140869140625,14.292185565185546L3.8812769140625,9.990625565185546L5.9203369140625,9.990625565185546L5.9203369140625,14.292185565185546ZM6.4781469140625,9.435935565185547L3.2906469140625,9.435935565185547C2.8328369140625,9.435935565185547,2.4593969140625003,9.067185565185547,2.4593969140625003,8.615625565185546L2.4593969140625003,5.470315565185547C2.4593969140625003,5.018745565185547,2.8328369140625,4.649995565185547,3.2906469140625,4.649995565185547L6.4781469140625,4.649995565185547L6.4781469140625,9.435935565185547ZM12.4015869140625,12.048485565185548L6.9859669140625,9.489065565185546L6.9859669140625,4.642185565185547L12.4015869140625,1.973437565185547L12.4015869140625,12.048485565185548ZM12.9703869140625,8.540625565185547L12.9703869140625,5.4687455651855466C13.7843869140625,5.546875565185547,14.4077869140625,6.173435565185547,14.4077869140625,7.010935565185547C14.4077869140625,7.845315565185547,13.7812869140625,8.459375565185546,12.9703869140625,8.540625565185547ZM7.5687769140625,8.870315565185546L11.8374869140625,10.935935565185547C12.0515869140625,11.054685565185547,12.2921869140625,10.642185565185548,12.0343869140625,10.492185565185547L7.7531469140625,8.387495565185546C7.4890869140625,8.295315565185547,7.2734569140625,8.682815565185546,7.5687769140625,8.870315565185546Z" fill="#FFFFFF" fill-opacity="1"/></g></g></svg>