<svg xmlns="http://www.w3.org/2000/svg" xmlns:xlink="http://www.w3.org/1999/xlink" fill="none" version="1.1" width="16" height="16" viewBox="0 0 16 16"><defs><clipPath id="master_svg0_49_14"><rect x="0" y="0" width="16" height="16" rx="0"/></clipPath></defs><g clip-path="url(#master_svg0_49_14)"><g><path d="M8.03200537109375,9.151999839782714C8.00000537109375,9.119999839782714,7.90400537109375,9.119999839782714,7.90400537109375,9.151999839782714L7.96800537109375,9.055999839782714L8.03200537109375,9.151999839782714ZM9.98400537109375,6.815999839782715L8.44800537109375,9.471999839782715C8.25600537109375,9.823999839782715,7.84000537109375,9.855999839782715,7.55200537109375,9.567999839782715L5.66400537109375,7.551999839782715L3.77600537109375,11.039999839782714C3.64800537109375,11.295999839782715,3.32800537109375,11.487999839782715,3.00800537109375,11.487999839782715L1.72800537109375,11.487999839782715C1.18400537109375,11.487999839782715,0.76800537109375,11.071999839782714,0.76800537109375,10.527999839782716L0.76800537109375,2.527999839782715C0.76800537109375,1.9839998397827148,1.18400537109375,1.5679998397827148,1.72800537109375,1.5679998397827148L14.20800537109375,1.5679998397827148C14.75200537109375,1.5679998397827148,15.16800537109375,1.9839998397827148,15.16800537109375,2.527999839782715L15.16800537109375,10.527999839782716C15.16800537109375,11.071999839782714,14.75200537109375,11.487999839782715,14.20800537109375,11.487999839782715L8.32000537109375,11.487999839782715L8.32000537109375,13.727999839782715L11.20000537109375,13.727999839782715C11.39200537109375,13.727999839782715,11.52000537109375,13.855999839782715,11.52000537109375,14.047999839782715C11.52000537109375,14.239999839782715,11.39200537109375,14.367999839782716,11.20000537109375,14.367999839782716L4.80000537109375,14.367999839782716C4.60800537109375,14.367999839782716,4.48000537109375,14.239999839782715,4.48000537109375,14.047999839782715C4.48000537109375,13.855999839782715,4.60800537109375,13.727999839782715,4.80000537109375,13.727999839782715L7.68000537109375,13.727999839782715L7.68000537109375,11.487999839782715C7.68000537109375,11.135999839782714,7.96800537109375,10.847999839782714,8.32000537109375,10.847999839782714L14.24000537109375,10.847999839782714C14.43200537109375,10.847999839782714,14.56000537109375,10.719999839782714,14.56000537109375,10.527999839782716L14.56000537109375,2.527999839782715C14.56000537109375,2.3679998397827147,14.40000537109375,2.207999839782715,14.24000537109375,2.207999839782715L1.7600063710937501,2.207999839782715C1.56800637109375,2.207999839782715,1.4400063710937498,2.3359998397827146,1.4400063710937498,2.527999839782715L1.4400063710937498,10.527999839782716C1.4400063710937498,10.687999839782714,1.60000637109375,10.847999839782714,1.7600063710937501,10.847999839782714L3.04000537109375,10.847999839782714C3.10400537109375,10.847999839782714,3.20000537109375,10.783999839782714,3.23200537109375,10.751999839782714L5.18400537109375,7.1359998397827145C5.37600537109375,6.783999839782715,5.79200537109375,6.719999839782715,6.08000537109375,7.007999839782715L7.96800537109375,9.023999839782714L9.50400537109375,6.367999839782715C9.18400537109375,6.015999839782715,8.99200537109375,5.567999839782715,8.99200537109375,5.055999839782714C8.99200537109375,3.999999839782715,9.85600537109375,3.135999839782715,10.91200537109375,3.135999839782715C11.96800537109375,3.135999839782715,12.83200537109375,3.999999839782715,12.83200537109375,5.055999839782714C12.83200537109375,6.111999839782714,11.96800537109375,6.975999839782715,10.91200537109375,6.975999839782715C10.56000537109375,7.039999839782715,10.24000537109375,6.943999839782715,9.98400537109375,6.815999839782715ZM10.88000537109375,6.399999839782715C11.58400537109375,6.399999839782715,12.16000537109375,5.823999839782715,12.16000537109375,5.1199998397827144C12.16000537109375,4.415999839782715,11.58400537109375,3.8399998397827146,10.88000537109375,3.8399998397827146C10.17600537109375,3.8399998397827146,9.60000537109375,4.415999839782715,9.60000537109375,5.1199998397827144C9.60000537109375,5.823999839782715,10.17600537109375,6.399999839782715,10.88000537109375,6.399999839782715Z" fill="#FFFFFF" fill-opacity="1"/></g></g></svg>